<mxfile host="app.diagrams.net" agent="Mozilla/5.0 (Macintosh; Intel Mac OS X 10_15_7) AppleWebKit/537.36 (KHTML, like Gecko) Chrome/131.0.0.0 Safari/537.36" version="26.0.5">
  <diagram name="第 1 页" id="qTMx3RKLJZyqo1jGgnL2">
    <mxGraphModel dx="2065" dy="571" grid="1" gridSize="10" guides="1" tooltips="1" connect="1" arrows="1" fold="1" page="1" pageScale="1" pageWidth="827" pageHeight="1169" math="0" shadow="0">
      <root>
        <mxCell id="0" />
        <mxCell id="1" parent="0" />
        <mxCell id="ZqHeTDyFSFgQdkSSylZQ-3" value="" style="edgeStyle=orthogonalEdgeStyle;rounded=0;orthogonalLoop=1;jettySize=auto;html=1;" edge="1" parent="1" source="ZqHeTDyFSFgQdkSSylZQ-1" target="ZqHeTDyFSFgQdkSSylZQ-2">
          <mxGeometry relative="1" as="geometry" />
        </mxCell>
        <mxCell id="ZqHeTDyFSFgQdkSSylZQ-1" value="开始" style="strokeWidth=2;html=1;shape=mxgraph.flowchart.start_1;whiteSpace=wrap;fillColor=#f5f5f5;fontColor=#333333;strokeColor=#666666;" vertex="1" parent="1">
          <mxGeometry x="380" y="160" width="100" height="60" as="geometry" />
        </mxCell>
        <mxCell id="ZqHeTDyFSFgQdkSSylZQ-6" style="edgeStyle=orthogonalEdgeStyle;rounded=0;orthogonalLoop=1;jettySize=auto;html=1;" edge="1" parent="1" source="ZqHeTDyFSFgQdkSSylZQ-2" target="ZqHeTDyFSFgQdkSSylZQ-4">
          <mxGeometry relative="1" as="geometry" />
        </mxCell>
        <mxCell id="ZqHeTDyFSFgQdkSSylZQ-2" value="acam平台" style="rounded=1;whiteSpace=wrap;html=1;absoluteArcSize=1;arcSize=14;strokeWidth=2;fillColor=#fa6800;fontColor=#000000;strokeColor=#C73500;" vertex="1" parent="1">
          <mxGeometry x="370" y="260" width="120" height="60" as="geometry" />
        </mxCell>
        <mxCell id="ZqHeTDyFSFgQdkSSylZQ-16" style="edgeStyle=orthogonalEdgeStyle;rounded=0;orthogonalLoop=1;jettySize=auto;html=1;entryX=0.75;entryY=0;entryDx=0;entryDy=0;" edge="1" parent="1" source="ZqHeTDyFSFgQdkSSylZQ-4" target="ZqHeTDyFSFgQdkSSylZQ-8">
          <mxGeometry relative="1" as="geometry">
            <Array as="points">
              <mxPoint x="300" y="460" />
              <mxPoint x="10" y="460" />
            </Array>
          </mxGeometry>
        </mxCell>
        <mxCell id="ZqHeTDyFSFgQdkSSylZQ-17" style="edgeStyle=orthogonalEdgeStyle;rounded=0;orthogonalLoop=1;jettySize=auto;html=1;" edge="1" parent="1" source="ZqHeTDyFSFgQdkSSylZQ-4" target="ZqHeTDyFSFgQdkSSylZQ-9">
          <mxGeometry relative="1" as="geometry">
            <Array as="points">
              <mxPoint x="300" y="460" />
              <mxPoint x="120" y="460" />
            </Array>
          </mxGeometry>
        </mxCell>
        <mxCell id="ZqHeTDyFSFgQdkSSylZQ-19" style="edgeStyle=orthogonalEdgeStyle;rounded=0;orthogonalLoop=1;jettySize=auto;html=1;entryX=0.5;entryY=0;entryDx=0;entryDy=0;" edge="1" parent="1" source="ZqHeTDyFSFgQdkSSylZQ-4" target="ZqHeTDyFSFgQdkSSylZQ-11">
          <mxGeometry relative="1" as="geometry" />
        </mxCell>
        <mxCell id="ZqHeTDyFSFgQdkSSylZQ-4" value="高新（账管机器）&lt;br&gt;提供给acam调用&lt;br&gt;10.170.106.193" style="rounded=1;whiteSpace=wrap;html=1;absoluteArcSize=1;arcSize=14;strokeWidth=2;fillColor=#008a00;strokeColor=#005700;fontColor=#ffffff;" vertex="1" parent="1">
          <mxGeometry x="240" y="360" width="120" height="60" as="geometry" />
        </mxCell>
        <mxCell id="ZqHeTDyFSFgQdkSSylZQ-20" style="edgeStyle=orthogonalEdgeStyle;rounded=0;orthogonalLoop=1;jettySize=auto;html=1;entryX=0.5;entryY=0;entryDx=0;entryDy=0;" edge="1" parent="1" source="ZqHeTDyFSFgQdkSSylZQ-5" target="ZqHeTDyFSFgQdkSSylZQ-11">
          <mxGeometry relative="1" as="geometry">
            <Array as="points">
              <mxPoint x="570" y="460" />
              <mxPoint x="400" y="460" />
            </Array>
          </mxGeometry>
        </mxCell>
        <mxCell id="ZqHeTDyFSFgQdkSSylZQ-21" style="edgeStyle=orthogonalEdgeStyle;rounded=0;orthogonalLoop=1;jettySize=auto;html=1;entryX=0.5;entryY=0;entryDx=0;entryDy=0;" edge="1" parent="1" source="ZqHeTDyFSFgQdkSSylZQ-5" target="ZqHeTDyFSFgQdkSSylZQ-12">
          <mxGeometry relative="1" as="geometry" />
        </mxCell>
        <mxCell id="ZqHeTDyFSFgQdkSSylZQ-22" style="edgeStyle=orthogonalEdgeStyle;rounded=0;orthogonalLoop=1;jettySize=auto;html=1;" edge="1" parent="1" source="ZqHeTDyFSFgQdkSSylZQ-5" target="ZqHeTDyFSFgQdkSSylZQ-13">
          <mxGeometry relative="1" as="geometry" />
        </mxCell>
        <mxCell id="ZqHeTDyFSFgQdkSSylZQ-24" style="edgeStyle=orthogonalEdgeStyle;rounded=0;orthogonalLoop=1;jettySize=auto;html=1;entryX=0.5;entryY=0;entryDx=0;entryDy=0;" edge="1" parent="1" source="ZqHeTDyFSFgQdkSSylZQ-5" target="ZqHeTDyFSFgQdkSSylZQ-15">
          <mxGeometry relative="1" as="geometry">
            <Array as="points">
              <mxPoint x="570" y="460" />
              <mxPoint x="950" y="460" />
            </Array>
          </mxGeometry>
        </mxCell>
        <mxCell id="ZqHeTDyFSFgQdkSSylZQ-5" value="呈贡（账管机器）&lt;br&gt;提供给acam调用&lt;br&gt;10.171.141.108" style="rounded=1;whiteSpace=wrap;html=1;absoluteArcSize=1;arcSize=14;strokeWidth=2;fillColor=#d80073;strokeColor=#A50040;fontColor=#ffffff;" vertex="1" parent="1">
          <mxGeometry x="510" y="360" width="120" height="60" as="geometry" />
        </mxCell>
        <mxCell id="ZqHeTDyFSFgQdkSSylZQ-7" style="edgeStyle=orthogonalEdgeStyle;rounded=0;orthogonalLoop=1;jettySize=auto;html=1;entryX=0.592;entryY=0.017;entryDx=0;entryDy=0;entryPerimeter=0;" edge="1" parent="1" source="ZqHeTDyFSFgQdkSSylZQ-2" target="ZqHeTDyFSFgQdkSSylZQ-5">
          <mxGeometry relative="1" as="geometry" />
        </mxCell>
        <mxCell id="ZqHeTDyFSFgQdkSSylZQ-8" value="高新（账管机器）&lt;br&gt;10.170.106.193" style="rounded=1;whiteSpace=wrap;html=1;absoluteArcSize=1;arcSize=14;strokeWidth=2;fillColor=#008a00;strokeColor=#005700;fontColor=#ffffff;" vertex="1" parent="1">
          <mxGeometry x="-80" y="500" width="120" height="60" as="geometry" />
        </mxCell>
        <mxCell id="ZqHeTDyFSFgQdkSSylZQ-9" value="高新（账管机器）&lt;br&gt;10.170.106.194" style="rounded=1;whiteSpace=wrap;html=1;absoluteArcSize=1;arcSize=14;strokeWidth=2;fillColor=#008a00;strokeColor=#005700;fontColor=#ffffff;" vertex="1" parent="1">
          <mxGeometry x="60" y="500" width="120" height="60" as="geometry" />
        </mxCell>
        <mxCell id="ZqHeTDyFSFgQdkSSylZQ-10" value="高新（账管机器）&lt;br&gt;10.170.106.195" style="rounded=1;whiteSpace=wrap;html=1;absoluteArcSize=1;arcSize=14;strokeWidth=2;fillColor=#008a00;strokeColor=#005700;fontColor=#ffffff;" vertex="1" parent="1">
          <mxGeometry x="200" y="500" width="120" height="60" as="geometry" />
        </mxCell>
        <mxCell id="ZqHeTDyFSFgQdkSSylZQ-11" value="高新（账管机器）&lt;br&gt;10.170.106.196" style="rounded=1;whiteSpace=wrap;html=1;absoluteArcSize=1;arcSize=14;strokeWidth=2;fillColor=#008a00;strokeColor=#005700;fontColor=#ffffff;" vertex="1" parent="1">
          <mxGeometry x="340" y="500" width="120" height="60" as="geometry" />
        </mxCell>
        <mxCell id="ZqHeTDyFSFgQdkSSylZQ-12" value="呈贡账管机器）&lt;br&gt;10.171.141.108" style="rounded=1;whiteSpace=wrap;html=1;absoluteArcSize=1;arcSize=14;strokeWidth=2;fillColor=#d80073;fontColor=#ffffff;strokeColor=#A50040;" vertex="1" parent="1">
          <mxGeometry x="470" y="500" width="120" height="60" as="geometry" />
        </mxCell>
        <mxCell id="ZqHeTDyFSFgQdkSSylZQ-13" value="呈贡（账管机器）&lt;br&gt;10.171.141.109" style="rounded=1;whiteSpace=wrap;html=1;absoluteArcSize=1;arcSize=14;strokeWidth=2;fillColor=#d80073;fontColor=#ffffff;strokeColor=#A50040;" vertex="1" parent="1">
          <mxGeometry x="610" y="500" width="120" height="60" as="geometry" />
        </mxCell>
        <mxCell id="ZqHeTDyFSFgQdkSSylZQ-14" value="呈贡（账管机器）&lt;br&gt;10.171.141.120" style="rounded=1;whiteSpace=wrap;html=1;absoluteArcSize=1;arcSize=14;strokeWidth=2;fillColor=#d80073;fontColor=#ffffff;strokeColor=#A50040;" vertex="1" parent="1">
          <mxGeometry x="750" y="500" width="120" height="60" as="geometry" />
        </mxCell>
        <mxCell id="ZqHeTDyFSFgQdkSSylZQ-15" value="呈贡（账管机器）&lt;br&gt;10.171.141.121" style="rounded=1;whiteSpace=wrap;html=1;absoluteArcSize=1;arcSize=14;strokeWidth=2;fillColor=#d80073;fontColor=#ffffff;strokeColor=#A50040;" vertex="1" parent="1">
          <mxGeometry x="890" y="500" width="120" height="60" as="geometry" />
        </mxCell>
        <mxCell id="ZqHeTDyFSFgQdkSSylZQ-18" style="edgeStyle=orthogonalEdgeStyle;rounded=0;orthogonalLoop=1;jettySize=auto;html=1;entryX=0.558;entryY=0.05;entryDx=0;entryDy=0;entryPerimeter=0;" edge="1" parent="1" source="ZqHeTDyFSFgQdkSSylZQ-4" target="ZqHeTDyFSFgQdkSSylZQ-10">
          <mxGeometry relative="1" as="geometry" />
        </mxCell>
        <mxCell id="ZqHeTDyFSFgQdkSSylZQ-23" style="edgeStyle=orthogonalEdgeStyle;rounded=0;orthogonalLoop=1;jettySize=auto;html=1;entryX=0.567;entryY=0.017;entryDx=0;entryDy=0;entryPerimeter=0;" edge="1" parent="1" source="ZqHeTDyFSFgQdkSSylZQ-5" target="ZqHeTDyFSFgQdkSSylZQ-14">
          <mxGeometry relative="1" as="geometry">
            <Array as="points">
              <mxPoint x="570" y="460" />
              <mxPoint x="818" y="460" />
            </Array>
          </mxGeometry>
        </mxCell>
      </root>
    </mxGraphModel>
  </diagram>
</mxfile>
